<?xml version="1.0" encoding="UTF-8" standalone="no"?>
<svg
   xmlns:dc="http://purl.org/dc/elements/1.1/"
   xmlns:cc="http://creativecommons.org/ns#"
   xmlns:rdf="http://www.w3.org/1999/02/22-rdf-syntax-ns#"
   xmlns:svg="http://www.w3.org/2000/svg"
   xmlns="http://www.w3.org/2000/svg"
   xmlns:sodipodi="http://sodipodi.sourceforge.net/DTD/sodipodi-0.dtd"
   xmlns:inkscape="http://www.inkscape.org/namespaces/inkscape"
   id="svg8"
   version="1.1"
   viewBox="-2.7755576e-17 0 83.218229 51.045185"
   height="51.045185mm"
   width="83.218231mm"
   sodipodi:docname="MEANDRE_bw_logo.svg"
   inkscape:version="0.92.4 (5da689c313, 2019-01-14)"
   style="enable-background:new">
  <sodipodi:namedview
     pagecolor="#000000"
     bordercolor="#666666"
     borderopacity="1"
     objecttolerance="10"
     gridtolerance="10"
     guidetolerance="10"
     inkscape:pageopacity="1"
     inkscape:pageshadow="2"
     inkscape:window-width="1920"
     inkscape:window-height="1052"
     id="namedview6"
     showgrid="false"
     inkscape:zoom="1.7524595"
     inkscape:cx="33.511641"
     inkscape:cy="98.793061"
     inkscape:window-x="0"
     inkscape:window-y="28"
     inkscape:window-maximized="0"
     inkscape:current-layer="g865"
     viewbox-x="-2.7755576e-17"
     fit-margin-top="2.9"
     fit-margin-right="3"
     fit-margin-bottom="1.5"
     fit-margin-left="3" />
  <defs
     id="defs2">
    <inkscape:path-effect
       simplifyJustCoalesce="false"
       simplifyindividualpaths="false"
       simplify_just_coalesce="false"
       simplify_individual_paths="false"
       helper_size="0"
       smooth_angles="360"
       threshold="0.0272893"
       steps="1"
       is_visible="true"
       id="path-effect853"
       effect="simplify" />
    <inkscape:path-effect
       simplifyJustCoalesce="false"
       simplifyindividualpaths="false"
       simplify_just_coalesce="false"
       simplify_individual_paths="false"
       helper_size="0"
       smooth_angles="360"
       threshold="0.0272893"
       steps="1"
       is_visible="true"
       id="path-effect849"
       effect="simplify" />
    <inkscape:path-effect
       simplifyJustCoalesce="false"
       simplifyindividualpaths="false"
       simplify_just_coalesce="false"
       simplify_individual_paths="false"
       helper_size="0"
       smooth_angles="360"
       threshold="0.0272893"
       steps="1"
       is_visible="true"
       id="path-effect845"
       effect="simplify" />
    <inkscape:path-effect
       effect="simplify"
       id="path-effect882"
       is_visible="true"
       steps="1"
       threshold="0.0272893"
       smooth_angles="360"
       helper_size="0"
       simplify_individual_paths="false"
       simplify_just_coalesce="false"
       simplifyindividualpaths="false"
       simplifyJustCoalesce="false" />
    <inkscape:path-effect
       effect="simplify"
       id="path-effect878"
       is_visible="true"
       steps="1"
       threshold="0.0272893"
       smooth_angles="360"
       helper_size="0"
       simplify_individual_paths="false"
       simplify_just_coalesce="false"
       simplifyindividualpaths="false"
       simplifyJustCoalesce="false" />
    <inkscape:path-effect
       effect="simplify"
       id="path-effect866"
       is_visible="true"
       steps="1"
       threshold="0.0272893"
       smooth_angles="360"
       helper_size="0"
       simplify_individual_paths="false"
       simplify_just_coalesce="false"
       simplifyindividualpaths="false"
       simplifyJustCoalesce="false" />
    <inkscape:path-effect
       effect="simplify"
       id="path-effect854"
       is_visible="true"
       steps="1"
       threshold="0.0272893"
       smooth_angles="360"
       helper_size="0"
       simplify_individual_paths="false"
       simplify_just_coalesce="false"
       simplifyindividualpaths="false"
       simplifyJustCoalesce="false" />
    <clipPath
       id="clipPath18"
       clipPathUnits="userSpaceOnUse">
      <path
         id="path16"
         d="M 0,196.298 H 413.962 V 0 H 0 Z"
         inkscape:connector-curvature="0" />
    </clipPath>
    <inkscape:path-effect
       effect="simplify"
       id="path-effect854-3"
       is_visible="true"
       steps="1"
       threshold="0.0272893"
       smooth_angles="360"
       helper_size="0"
       simplify_individual_paths="false"
       simplify_just_coalesce="false"
       simplifyindividualpaths="false"
       simplifyJustCoalesce="false" />
    <inkscape:path-effect
       simplifyJustCoalesce="false"
       simplifyindividualpaths="false"
       simplify_just_coalesce="false"
       simplify_individual_paths="false"
       helper_size="0"
       smooth_angles="360"
       threshold="0.0272893"
       steps="1"
       is_visible="true"
       id="path-effect849-3"
       effect="simplify" />
  </defs>
  <metadata
     id="metadata5">
    <rdf:RDF>
      <cc:Work
         rdf:about="">
        <dc:format>image/svg+xml</dc:format>
        <dc:type
           rdf:resource="http://purl.org/dc/dcmitype/StillImage" />
        <dc:title></dc:title>
      </cc:Work>
    </rdf:RDF>
  </metadata>
  <g
     id="g865"
     style="display:inline"
     transform="translate(-55.795339,-100.22429)"
     inkscape:groupmode="layer">
    <path
       style="color:#000000;font-style:normal;font-variant:normal;font-weight:normal;font-stretch:normal;font-size:medium;line-height:normal;font-family:sans-serif;font-variant-ligatures:normal;font-variant-position:normal;font-variant-caps:normal;font-variant-numeric:normal;font-variant-alternates:normal;font-feature-settings:normal;text-indent:0;text-align:start;text-decoration:none;text-decoration-line:none;text-decoration-style:solid;text-decoration-color:#000000;letter-spacing:normal;word-spacing:normal;text-transform:none;writing-mode:lr-tb;direction:ltr;text-orientation:mixed;dominant-baseline:auto;baseline-shift:baseline;text-anchor:start;white-space:normal;shape-padding:0;clip-rule:nonzero;display:none;overflow:visible;visibility:visible;opacity:1;isolation:auto;mix-blend-mode:normal;color-interpolation:sRGB;color-interpolation-filters:linearRGB;solid-color:#000000;solid-opacity:1;vector-effect:none;fill:#ffff00;fill-opacity:1;fill-rule:nonzero;stroke:none;stroke-width:8.01687527;stroke-linecap:square;stroke-linejoin:miter;stroke-miterlimit:4;stroke-dasharray:none;stroke-dashoffset:0;stroke-opacity:1;color-rendering:auto;image-rendering:auto;shape-rendering:auto;text-rendering:auto;enable-background:new"
       d="m 85.007812,117.45117 c -6.754116,-0.0684 -11.177947,4.61246 -14.669921,8.47852 -3.491975,3.86606 -6.487631,7.1619 -9.84375,8.08984 l -3.863282,1.06641 2.136719,7.72851 3.863281,-1.06836 c 6.45917,-1.78591 10.32187,-6.75177 13.65625,-10.44336 3.334381,-3.69158 5.704497,-5.86566 8.640625,-5.83593 4.359685,0.0441 7.26085,1.83213 10.691407,4.68359 3.430556,2.85146 7.035889,6.7846 12.195309,9.64258 8.79101,4.86964 18.20782,3.5069 25.89649,3.57226 l 4.00976,0.0352 0.0664,-8.01758 -4.00781,-0.0332 c -8.45608,-0.0719 -16.10682,0.73848 -22.08008,-2.57031 -3.72695,-2.06449 -6.98074,-5.48952 -10.95508,-8.79297 -3.97434,-3.30346 -9.025089,-6.46721 -15.736328,-6.53516 z"
       id="path851-7"
       inkscape:connector-curvature="0" />
    <path
       style="color:#000000;font-style:normal;font-variant:normal;font-weight:normal;font-stretch:normal;font-size:medium;line-height:normal;font-family:sans-serif;font-variant-ligatures:normal;font-variant-position:normal;font-variant-caps:normal;font-variant-numeric:normal;font-variant-alternates:normal;font-feature-settings:normal;text-indent:0;text-align:start;text-decoration:none;text-decoration-line:none;text-decoration-style:solid;text-decoration-color:#000000;letter-spacing:normal;word-spacing:normal;text-transform:none;writing-mode:lr-tb;direction:ltr;text-orientation:mixed;dominant-baseline:auto;baseline-shift:baseline;text-anchor:start;white-space:normal;shape-padding:0;clip-rule:nonzero;display:inline;overflow:visible;visibility:visible;opacity:1;isolation:auto;mix-blend-mode:normal;color-interpolation:sRGB;color-interpolation-filters:linearRGB;solid-color:#000000;solid-opacity:1;vector-effect:none;fill:#ffffff;fill-opacity:1;fill-rule:nonzero;stroke:none;stroke-width:17;stroke-linecap:square;stroke-linejoin:miter;stroke-miterlimit:4;stroke-dasharray:none;stroke-dashoffset:0;stroke-opacity:1;color-rendering:auto;image-rendering:auto;shape-rendering:auto;text-rendering:auto;enable-background:accumulate"
       d="m 110.34375,71.757812 c -14.367281,-0.145465 -25.694091,6.260472 -35.429688,14.6875 0.253759,0.139155 0.502304,0.297981 0.753907,0.445313 0.769148,-0.08524 1.53969,-0.159282 2.3125,-0.210937 9.169645,-0.612903 17.999802,0.363313 26.535151,2.597656 1.82924,-0.354863 3.70902,-0.539265 5.65821,-0.519532 4.44538,0.04504 8.55422,0.54973 12.42773,1.429688 2.95724,-1.259192 5.96169,-1.896873 8.44727,-2.023438 9.23373,-0.470437 14.18628,2.290363 19.8125,4.900391 5.62621,2.610029 11.40521,5.870446 17.86523,9.589847 3.69157,2.12542 6.79197,3.22353 9.91211,3.60742 -4.24012,-3.78207 -8.52459,-7.616665 -13.0039,-11.339845 C 151.0647,82.811286 133.75845,71.994865 110.34375,71.757812 Z m -90.841797,62.384768 -8.164062,2.25781 3.708984,13.41211 1.878906,-7.45117 c 0.705715,-2.79739 1.568014,-5.54103 2.576172,-8.21875 z m 231.900387,5.19336 c -2.04898,4.54325 -4.09456,9.0569 -6.15625,13.63281 -0.47634,1.05724 -0.97146,2.10113 -1.48242,3.13477 17.41343,1.4656 34.74369,0.1664 50.7793,0.30273 l 8.49805,0.0664 0.14648,-16.99414 -8.50391,-0.0723 c -14.79699,-0.12587 -29.38237,0.59118 -43.28125,-0.0703 z"
       transform="matrix(0.26458333,0,0,0.26458333,55.795339,100.22429)"
       id="path851"
       inkscape:connector-curvature="0" />
    <path
       style="color:#000000;font-style:normal;font-variant:normal;font-weight:normal;font-stretch:normal;font-size:medium;line-height:normal;font-family:sans-serif;font-variant-ligatures:normal;font-variant-position:normal;font-variant-caps:normal;font-variant-numeric:normal;font-variant-alternates:normal;font-feature-settings:normal;text-indent:0;text-align:start;text-decoration:none;text-decoration-line:none;text-decoration-style:solid;text-decoration-color:#000000;letter-spacing:normal;word-spacing:normal;text-transform:none;writing-mode:lr-tb;direction:ltr;text-orientation:mixed;dominant-baseline:auto;baseline-shift:baseline;text-anchor:start;white-space:normal;shape-padding:0;clip-rule:nonzero;display:inline;overflow:visible;visibility:visible;opacity:1;isolation:auto;mix-blend-mode:normal;color-interpolation:sRGB;color-interpolation-filters:linearRGB;solid-color:#000000;solid-opacity:1;vector-effect:none;fill:#ffffff;fill-opacity:1;fill-rule:nonzero;stroke:none;stroke-width:44.40000153;stroke-linecap:square;stroke-linejoin:miter;stroke-miterlimit:4;stroke-dasharray:none;stroke-dashoffset:0;stroke-opacity:1;color-rendering:auto;image-rendering:auto;shape-rendering:auto;text-rendering:auto;enable-background:accumulate"
       d="m 259.47266,10.962891 -11.51563,18.978515 c -12.65447,20.852458 -23.39409,42.43688 -33.36133,63.882813 17.06668,-10.274252 36.4065,-25.151565 61.41992,-30.078125 l 4.1543,-0.976563 c 1.88119,-3.301166 3.78869,-6.574618 5.74414,-9.796875 L 297.42969,33.994141 Z M 84.615234,94.480469 c 2.814911,3.361672 4.997478,7.242561 6.083985,11.318361 2.732504,10.25038 0.982771,20.11462 -2.833985,30.88476 -0.363578,1.02593 -0.657899,1.91341 -0.894531,2.68164 4.346647,0.80974 9.890391,2.69588 16.105467,5.90039 2.79241,-1.02882 5.18159,-2.43763 6.49219,-3.79687 2.26473,-2.34879 3.37648,-3.16511 1.54297,-9.70898 -2.20829,-7.88149 -3.8849,-13.98349 -2.65821,-22.5293 0.3955,-2.75523 1.30174,-6.05063 3.11524,-9.251954 -8.78295,-3.36189 -17.768535,-5.316933 -26.953126,-5.498047 z M 253.64844,115.22266 c -7.54136,4.45433 -15.63263,9.43709 -24.1543,14.25781 -10.80642,6.11323 -22.59687,11.86442 -36.26758,14.17969 -13.64715,2.31122 -29.33959,0.37307 -43.53125,-7.77344 -0.22632,12.53049 -4.93759,24.26224 -12.55664,32.16406 -0.28322,0.29374 -0.57738,0.56633 -0.86523,0.85156 9.93079,6.90038 21.7828,13.46067 35.75195,16.7168 11.22421,2.6163 24.81262,2.57147 37.26367,-3.63867 12.45105,-6.21018 22.15362,-17.72576 28.70899,-32.27539 5.21713,-11.5794 10.38608,-23.10896 15.65039,-34.48242 z M 51.382812,125.62695 c -1.283274,0.71426 -2.430859,0.90178 -3.630859,1.97071 l -14.298828,12.74023 -5.474609,-6.14453 c -1.339825,3.23882 -2.465001,6.61842 -3.347657,10.11719 l -5.423828,21.52539 43.050781,10.85742 0.5625,-2.23047 c -1.03764,-0.86463 -2.058549,-1.76975 -3.042968,-2.75977 -10.763721,-10.82494 -13.804491,-29.06508 -8.394532,-46.07617 z"
       transform="matrix(0.26458333,0,0,0.26458333,55.795339,100.22429)"
       id="path843"
       inkscape:connector-curvature="0" />
    <path
       style="color:#000000;font-style:normal;font-variant:normal;font-weight:normal;font-stretch:normal;font-size:medium;line-height:normal;font-family:sans-serif;font-variant-ligatures:normal;font-variant-position:normal;font-variant-caps:normal;font-variant-numeric:normal;font-variant-alternates:normal;font-feature-settings:normal;text-indent:0;text-align:start;text-decoration:none;text-decoration-line:none;text-decoration-style:solid;text-decoration-color:#000000;letter-spacing:normal;word-spacing:normal;text-transform:none;writing-mode:lr-tb;direction:ltr;text-orientation:mixed;dominant-baseline:auto;baseline-shift:baseline;text-anchor:start;white-space:normal;shape-padding:0;clip-rule:nonzero;display:inline;overflow:visible;visibility:visible;opacity:1;isolation:auto;mix-blend-mode:normal;color-interpolation:sRGB;color-interpolation-filters:linearRGB;solid-color:#000000;solid-opacity:1;vector-effect:none;fill:#ffffff;fill-opacity:1;fill-rule:nonzero;stroke:none;stroke-width:6.19124985;stroke-linecap:square;stroke-linejoin:miter;stroke-miterlimit:4;stroke-dasharray:none;stroke-dashoffset:0;stroke-opacity:1;color-rendering:auto;image-rendering:auto;shape-rendering:auto;text-rendering:auto;enable-background:accumulate"
       d="m 134.95898,118.17578 -3.07226,0.375 -1.37695,0.16797 -1.1543,0.27344 c -6.51604,1.23544 -11.87154,5.5662 -16.85742,8.38672 -2.49294,1.41026 -4.84021,2.45274 -6.94141,2.80859 -2.10119,0.35585 -3.92776,0.15783 -6.101562,-1.09375 -1.695309,-0.97608 -3.195642,-1.8175 -4.574219,-2.45703 -1.378577,-0.63953 -2.55252,-1.20686 -4.3125,-1.11719 -0.87999,0.0448 -2.022781,0.40435 -2.839843,1.21094 -0.817063,0.80659 -1.165076,1.82367 -1.28711,2.67383 -0.244067,1.7003 0.09586,3.17627 0.648438,5.14843 0.644247,2.29935 0.137197,3.40684 -0.886719,4.46875 -1.023916,1.06192 -2.891241,1.86209 -4.71875,1.99024 -1.827509,0.12814 -3.411926,-0.43348 -4.085937,-1.11133 -0.674012,-0.67784 -1.154033,-1.5142 -0.212891,-4.16992 0.931076,-2.62731 1.269096,-4.88469 0.703125,-7.00781 -0.565971,-2.12312 -2.42177,-3.85953 -4.345703,-4.36328 C 69.695102,123.35187 66.064125,125.1612 63,127.89062 l -2.310547,2.0586 4.117188,4.62305 2.3125,-2.0586 c 1.921831,-1.71191 4.401689,-2.20562 4.787109,-2.14844 0.07004,0.30498 0.111763,1.41078 -0.556641,3.29688 -1.471049,4.15101 -0.735705,8.19403 1.660157,10.60351 2.395862,2.40949 5.734504,3.14442 8.908203,2.92188 3.173699,-0.22254 6.384292,-1.42178 8.742187,-3.86719 2.357896,-2.4454 3.536646,-6.35426 2.392578,-10.4375 -0.04085,-0.14581 -0.0089,-0.0983 -0.04297,-0.23437 0.953811,0.47745 2.00043,1.03038 3.355468,1.81054 3.376931,1.94429 6.973638,2.38261 10.224608,1.83204 3.25098,-0.55058 6.18628,-1.95602 8.95704,-3.52344 5.54151,-3.13485 10.64494,-6.87272 14.96289,-7.69141 l 0.0644,-0.0117 1.02148,-0.24023 1.04297,-0.12695 3.07227,-0.37696 z"
       id="path847"
       inkscape:connector-curvature="0" />
  </g>
  <g
     transform="matrix(0.05279819,0,0,-0.05279819,72.592401,75.218865)"
     inkscape:label="Logo-INRAE_RVB"
     id="g10"
     style="display:inline"
     inkscape:groupmode="layer" />
  <g
     id="g870"
     transform="translate(-55.795339,-100.22429)"
     style="display:inline"
     inkscape:groupmode="layer" />
</svg>
